<?xml version="1.0" encoding="iso-8859-1"?>
<!-- Generator: Adobe Illustrator 19.0.0, SVG Export Plug-In . SVG Version: 6.00 Build 0)  -->
<svg version="1.1" id="Capa_1" xmlns="http://www.w3.org/2000/svg" xmlns:xlink="http://www.w3.org/1999/xlink" x="0px" y="0px"
	 viewBox="0 0 512.001 512.001" style="enable-background:new 0 0 512.001 512.001;" xml:space="preserve">
<g>
	<g>
		<path d="M443.734,375.969c-12.919,0-12.941,20.078,0,20.078C456.653,396.048,456.675,375.969,443.734,375.969z"/>
	</g>
</g>
<g>
	<g>
		<path d="M136.048,158.099c-0.001-0.014-0.004-0.027-0.006-0.041c-0.037-0.383-0.1-0.758-0.18-1.127
			c-0.02-0.093-0.045-0.185-0.068-0.277c-0.074-0.305-0.163-0.604-0.264-0.898c-0.031-0.09-0.061-0.181-0.095-0.27
			c-0.138-0.361-0.289-0.715-0.466-1.055c-0.005-0.01-0.008-0.02-0.013-0.029l-0.008-0.015c-0.01-0.02-0.021-0.04-0.031-0.06
			l-33.51-64.284V33.351c0-3.081-1.416-5.992-3.838-7.895c-2.423-1.903-5.584-2.588-8.579-1.858L42.357,34.972
			c-4.497,1.097-7.66,5.125-7.66,9.753v45.316L1.176,154.325c-0.011,0.02-0.021,0.04-0.031,0.06l-0.008,0.015
			c-0.005,0.009-0.008,0.019-0.012,0.028c-0.177,0.34-0.328,0.694-0.466,1.055c-0.034,0.09-0.064,0.181-0.096,0.272
			c-0.101,0.293-0.19,0.592-0.264,0.897c-0.023,0.092-0.048,0.184-0.068,0.277c-0.079,0.369-0.143,0.744-0.18,1.126
			c-0.001,0.014-0.005,0.028-0.006,0.042c-0.032,0.345-0.048,0.697-0.044,1.051l3.413,319.608c0.059,5.501,4.537,9.931,10.039,9.931
			H122.64c5.502,0,9.98-4.43,10.039-9.932l3.413-319.608C136.096,158.795,136.08,158.444,136.048,158.099z M54.775,52.61
			l26.554-6.476v36.329H54.775V52.61z M50.823,102.541h34.456l24.22,46.462H26.596L50.823,102.541z M112.708,468.611H23.386
			l-3.199-299.53h95.719L112.708,468.611z"/>
	</g>
</g>
<g>
	<g>
		<path d="M68.046,215.121c-5.545,0-10.039,4.495-10.039,10.039v160.366c0,5.545,4.495,10.039,10.039,10.039
			c5.545,0,10.039-4.495,10.039-10.039V225.16C78.086,219.615,73.591,215.121,68.046,215.121z"/>
	</g>
</g>
<g>
	<g>
		<path d="M324.003,158.099c-0.001-0.014-0.004-0.027-0.006-0.041c-0.037-0.383-0.1-0.758-0.18-1.127
			c-0.02-0.093-0.045-0.185-0.068-0.277c-0.074-0.305-0.163-0.604-0.264-0.898c-0.031-0.09-0.061-0.181-0.095-0.27
			c-0.138-0.361-0.289-0.715-0.466-1.055c-0.005-0.01-0.008-0.02-0.013-0.029l-0.008-0.015c-0.01-0.02-0.021-0.04-0.031-0.06
			l-33.511-64.284V33.351c0-3.081-1.415-5.991-3.838-7.895c-2.422-1.903-5.585-2.588-8.579-1.858l-46.642,11.374
			c-4.497,1.096-7.661,5.125-7.661,9.753v45.317l-33.509,64.283c-0.011,0.02-0.021,0.04-0.031,0.06l-0.008,0.015
			c-0.005,0.009-0.008,0.02-0.013,0.029c-0.177,0.34-0.328,0.694-0.466,1.055c-0.034,0.09-0.064,0.18-0.095,0.271
			c-0.102,0.293-0.19,0.592-0.264,0.898c-0.023,0.092-0.048,0.184-0.068,0.277c-0.079,0.369-0.143,0.744-0.18,1.127
			c-0.001,0.014-0.005,0.027-0.006,0.041c-0.032,0.345-0.048,0.696-0.044,1.05l3.413,319.608c0.059,5.502,4.537,9.932,10.039,9.932
			h109.187c5.502,0,9.98-4.43,10.039-9.932l3.413-319.608C324.051,158.795,324.035,158.444,324.003,158.099z M242.719,52.61
			l26.564-6.478v36.331h-26.564V52.61z M238.768,102.541h34.466l24.22,46.462H214.55L238.768,102.541z M300.662,468.611H211.34
			l-3.198-299.53h95.719L300.662,468.611z"/>
	</g>
</g>
<g>
	<g>
		<path d="M256.001,215.121c-5.545,0-10.039,4.495-10.039,10.039v160.366c0,5.545,4.495,10.039,10.039,10.039
			c5.545,0,10.039-4.495,10.039-10.039V225.16C266.04,219.615,261.545,215.121,256.001,215.121z"/>
	</g>
</g>
<g>
	<g>
		<path d="M511.956,158.098c-0.001-0.014-0.005-0.028-0.006-0.042c-0.037-0.383-0.1-0.758-0.18-1.126
			c-0.02-0.092-0.045-0.185-0.068-0.277c-0.074-0.305-0.163-0.604-0.264-0.897c-0.031-0.091-0.062-0.182-0.096-0.272
			c-0.138-0.361-0.289-0.715-0.466-1.055c-0.005-0.009-0.008-0.019-0.012-0.028l-0.008-0.015c-0.01-0.02-0.02-0.04-0.031-0.06
			l-33.52-64.283v-56.69c0-3.081-1.416-5.992-3.838-7.895c-2.423-1.903-5.585-2.588-8.579-1.858l-46.632,11.374
			c-4.497,1.097-7.66,5.125-7.66,9.753v45.317l-33.51,64.283c-0.011,0.02-0.021,0.04-0.031,0.06l-0.008,0.015
			c-0.005,0.009-0.008,0.02-0.013,0.029c-0.177,0.34-0.328,0.694-0.466,1.055c-0.034,0.089-0.064,0.18-0.095,0.27
			c-0.102,0.293-0.19,0.592-0.264,0.898c-0.023,0.092-0.048,0.184-0.068,0.277c-0.079,0.369-0.143,0.744-0.18,1.127
			c-0.001,0.014-0.005,0.027-0.006,0.041c-0.032,0.345-0.048,0.696-0.044,1.05l3.413,319.608c0.059,5.501,4.537,9.932,10.039,9.932
			h109.185c5.503,0.001,9.98-4.429,10.039-9.931l3.413-319.608C512.005,158.794,511.989,158.443,511.956,158.098z M430.673,52.61
			l26.554-6.476v36.329h-26.554V52.61z M426.723,102.541h34.456l24.227,46.462h-82.902L426.723,102.541z M488.615,468.611h-89.322
			l-3.199-299.53h95.719L488.615,468.611z"/>
	</g>
</g>
<g>
	<g>
		<path d="M443.955,215.121c-5.545,0-10.039,4.495-10.039,10.039v128.221c0,5.545,4.495,10.039,10.039,10.039
			s10.039-4.495,10.039-10.039V225.16C453.994,219.615,449.5,215.121,443.955,215.121z"/>
	</g>
</g>
<g>
</g>
<g>
</g>
<g>
</g>
<g>
</g>
<g>
</g>
<g>
</g>
<g>
</g>
<g>
</g>
<g>
</g>
<g>
</g>
<g>
</g>
<g>
</g>
<g>
</g>
<g>
</g>
<g>
</g>
</svg>
