<svg id="Layer_9" height="612" viewBox="0 0 64 64" width="612" xmlns="http://www.w3.org/2000/svg" xmlns:xlink="http://www.w3.org/1999/xlink" data-name="Layer 9"><linearGradient id="linear-gradient" gradientUnits="userSpaceOnUse" x1="2" x2="65" y1="34.744" y2="34.744"><stop offset="0" stop-color="#1c9698"/><stop offset="1" stop-color="#bdab4b"/></linearGradient><linearGradient id="linear-gradient-2" x2="65" xlink:href="#linear-gradient" y1="12.985" y2="12.985"/><linearGradient id="linear-gradient-3" x2="65" xlink:href="#linear-gradient" y1="3.5" y2="3.5"/><linearGradient id="linear-gradient-4" gradientTransform="matrix(.447 .894 -.894 .447 24.307 -31.33)" x2="65" xlink:href="#linear-gradient" y1="4" y2="4"/><linearGradient id="linear-gradient-5" gradientTransform="matrix(.894 .447 -.447 .894 4.587 -11.429)" x2="65" xlink:href="#linear-gradient" y1="4" y2="4"/><linearGradient id="linear-gradient-6" x2="65" xlink:href="#linear-gradient" y1="56" y2="56"/><linearGradient id="linear-gradient-7" x2="65" xlink:href="#linear-gradient" y1="57" y2="57"/><path d="m57.979 50.794-4-19a1 1 0 0 0 -.556-.7l-3.023-1.411.285-1.709a1.165 1.165 0 0 1 2.315.191v1.835h2v-1.835a3.165 3.165 0 0 0 -6.288-.519l-.193 1.159-2.407-1.123a13.039 13.039 0 0 0 -5.429-1.224 18.733 18.733 0 0 0 4.317-11.973 7 7 0 0 0 -11.949-4.95l-1.051 1.051-1.051-1.051a7 7 0 0 0 -11.949 4.95 18.733 18.733 0 0 0 4.317 11.973 13.02 13.02 0 0 0 -5.429 1.224l-2.407 1.123-.193-1.159a3.165 3.165 0 0 0 -6.288.519v1.835h2v-1.835a1.165 1.165 0 0 1 2.315-.191l.285 1.709-3.023 1.411a1 1 0 0 0 -.556.7l-4 19a1 1 0 0 0 .274.911 6.078 6.078 0 0 1 0 8.586 1 1 0 0 0 .705 1.709h21a5.914 5.914 0 0 0 4-1.544 5.914 5.914 0 0 0 4 1.544h21a1 1 0 0 0 .707-1.707 6.078 6.078 0 0 1 0-8.586 1 1 0 0 0 .272-.913zm-36.979-36.309a5 5 0 0 1 8.535-3.536l1.758 1.758a1 1 0 0 0 1.414 0l1.758-1.758a5 5 0 0 1 8.535 3.536 16.741 16.741 0 0 1 -7.472 13.96l-3.528 2.355-3.528-2.353a16.741 16.741 0 0 1 -7.472-13.962zm-2.267 15.009a11.047 11.047 0 0 1 6.71-.852 18.845 18.845 0 0 0 1.919 1.467l4.083 2.723a1 1 0 0 0 1.11 0l4.083-2.723a18.845 18.845 0 0 0 1.919-1.467 11.046 11.046 0 0 1 6.71.852l2.91 1.359-1.024 6.147h-.243a6 6 0 0 0 -11.637-.789 6.672 6.672 0 0 0 -6.546 0 6 6 0 0 0 -11.637.789h-.243l-1.024-6.147zm26.267 8.506a4 4 0 1 1 -4-4 4 4 0 0 1 4 4zm-18 0a4 4 0 1 1 -4-4 4 4 0 0 1 4 4zm28 14.034v-.034h-11v2h10.2a8.09 8.09 0 0 0 .787 6h-18.987a3.96 3.96 0 0 1 -3.2-1.625 1.037 1.037 0 0 0 -1.6 0 3.96 3.96 0 0 1 -3.2 1.625h-18.989a8.028 8.028 0 0 0 .969-3h10.02v-2h-10a8.047 8.047 0 0 0 -1.273-3.422l9.973-2.624a14.173 14.173 0 0 1 12.66 2.815 1 1 0 0 0 1.28 0 14.173 14.173 0 0 1 12.66-2.815l9.971 2.624c-.1.149-.184.303-.271.456zm-9.192-5.013a16.179 16.179 0 0 0 -13.808 2.705 16.176 16.176 0 0 0 -13.808-2.7l-9.88 2.6 3.564-16.926 2.066-.964 1.072 6.433a1 1 0 0 0 .986.831h1.09a5.994 5.994 0 0 0 11.885-.512 4.634 4.634 0 0 1 6.05 0 5.994 5.994 0 0 0 11.885.512h1.09a1 1 0 0 0 .986-.836l1.072-6.433 2.066.964 3.563 16.925z" fill="url(#linear-gradient)"/><path d="m39 14.485h2a3 3 0 0 0 -3-3v2a1 1 0 0 1 1 1z" fill="url(#linear-gradient-2)"/><path d="m31 2h2v3h-2z" fill="url(#linear-gradient-3)"/><path d="m36.382 3h2.236v2h-2.236z" fill="url(#linear-gradient-4)" transform="matrix(.447 -.894 .894 .447 17.152 35.752)"/><path d="m25.5 2.882h2v2.236h-2z" fill="url(#linear-gradient-5)" transform="matrix(.894 -.447 .447 .894 1.009 12.273)"/><path d="m22 55h2v2h-2z" fill="url(#linear-gradient-6)"/><path d="m37 56h11v2h-11z" fill="url(#linear-gradient-7)"/></svg>