<svg width="171" height="182" viewBox="0 0 171 182" fill="none" xmlns="http://www.w3.org/2000/svg">
<path d="M121.494 0.617162C91.9015 10.3762 73.1239 26.8177 64.0911 50.8799C60.1454 61.3908 60.0045 70.3311 60.398 75.3387L56.093 72.6226C55.8077 72.4426 55.4723 72.3394 55.1221 72.3238C54.7718 72.3082 54.4195 72.3809 54.1022 72.5341C53.7848 72.6874 53.514 72.9156 53.3181 73.1949C53.1223 73.4742 53.0086 73.7942 52.989 74.1215C52.1485 88.1543 59.0197 96.6499 61.1321 98.912L51.6763 117.843C46.421 127.401 40.4126 141.023 40.3778 141.438C40.1203 141.103 40.3428 141.859 40.3778 141.438C39.9438 141.339 40.6353 141.773 40.3778 141.438C43.0252 135.335 37.1644 149.787 37.1644 149.787C37.1644 149.787 48.9961 138.907 49.2056 138.527C51.4911 134.379 57.9 130.448 57.9631 130.409C58.2911 130.21 58.553 129.928 58.7165 129.598L72.0586 102.649C92.6249 88.6305 104.691 74.1959 112.346 54.4683C112.453 54.1914 112.489 53.8975 112.45 53.6109C112.411 53.3244 112.298 53.0535 112.122 52.8209C111.945 52.5882 111.71 52.4005 111.435 52.2734C111.16 52.1463 110.854 52.0835 110.542 52.0901L104.172 52.2276C105.783 51.0399 107.668 49.5792 109.647 47.8984C117.154 41.5255 122.188 35.3157 124.611 29.4408C129.366 17.9105 124.174 2.37323 123.95 1.71755C123.795 1.26202 123.449 0.890177 122.988 0.683815C122.528 0.477452 121.99 0.453477 121.494 0.617162ZM56.8678 77.6062L61.7552 80.6897C62.0764 80.8923 62.4601 80.9971 62.8558 80.9902C63.2515 80.9833 63.6408 80.8651 63.9724 80.6511C64.304 80.4371 64.5623 80.1373 64.7135 79.7912C64.8647 79.4451 64.9017 79.0689 64.8195 78.712C64.7926 78.5948 62.2043 66.8263 67.7874 51.9533C70.4233 44.9316 73.9499 38.5809 78.3673 32.9013L79.8569 37.2744C80.0121 37.7299 80.3581 38.1018 80.8188 38.3081C81.2795 38.5145 81.8171 38.5385 82.3134 38.3748C82.8098 38.2111 83.2242 37.8732 83.4654 37.4353C83.7066 36.9975 83.755 36.4956 83.5998 36.04L81.3224 29.3542C89.7081 19.9323 100.873 12.4754 114.974 6.84707C100.995 21.8431 89.2916 41.3673 81.5874 55.9129C75.9836 66.4611 70.9397 77.242 66.4747 88.2151L63.0269 95.1173C60.8871 92.3497 57.2142 86.3734 56.8678 77.6062ZM55.409 127.699C53.7194 128.795 52.1135 130.002 50.6045 131.311C51.4013 128.033 52.5286 124.82 53.9712 121.715L56.9877 124.511L55.409 127.699ZM68.4746 101.309L58.7716 120.907L55.7836 118.139L67.3585 94.9651L68.4746 101.309ZM121.272 27.4373L112.842 30.2176C112.345 30.3813 111.931 30.7192 111.69 31.157C111.448 31.5949 111.4 32.0968 111.555 32.5523C111.71 33.0078 112.056 33.3797 112.517 33.586C112.978 33.7924 113.515 33.8164 114.012 33.6527L119.039 31.9947C112.228 43.1777 97.2348 52.5724 97.0677 52.676C96.7092 52.8982 96.4326 53.2193 96.2793 53.5916C96.1259 53.9639 96.1039 54.3673 96.2165 54.7417C96.3291 55.1162 96.5704 55.4416 96.9043 55.6695C97.2382 55.8975 97.6469 56.0157 98.0695 56.0066L107.682 55.7979C106.226 59.3007 104.546 62.7265 102.65 66.0562L87.2299 71.1415C86.7336 71.3052 86.3192 71.6431 86.078 72.081C85.8367 72.5188 85.7884 73.0207 85.9435 73.4763C86.0987 73.9318 86.4447 74.3036 86.9054 74.51C87.366 74.7163 87.9037 74.7403 88.4 74.5766L99.7003 70.85C92.9929 80.9825 84.0671 89.734 71.9406 98.2739L70.3021 88.9611C71.3249 86.4064 76.6908 73.27 85.1125 57.3742C93.2785 41.9608 105.987 20.8884 121.043 5.91296C122.217 10.6176 123.931 20.0243 121.272 27.4373Z" fill="url(#paint0_linear)"/>
<path d="M62 143.384C75.8492 136.897 87.3242 127.783 96.524 117.434C98.9971 114.731 101.272 111.642 101.173 108.321C97.81 108.167 95.9305 111.41 95.238 113.959C92.3692 124.231 91.2811 134.734 92.1714 145.238C92.2703 145.856 92.2703 146.551 92.7649 147.091C93.952 148.25 96.3262 147.786 98.0078 147.169C102.262 145.547 106.317 143.693 110.076 141.608C110.175 143.77 110.175 145.933 110.274 148.095C114.132 146.782 117.595 144.929 120.463 142.535C120.661 143.616 120.859 144.697 120.958 145.701C124.222 145.624 127.388 144.774 130.059 143.23C129.465 144.311 130.949 145.547 132.532 145.547C134.016 145.547 135.401 144.697 136.39 143.848C137.478 142.998 138.467 142.071 139.951 141.608C139.259 143.848 143.512 145.16 146.282 144.311C149.052 143.461 151.228 141.608 154.196 141.222C154.493 142.612 154.097 144.002 153.207 145.238C155.482 145.392 158.845 144.62 160.329 143.384" stroke="black" stroke-width="2.5" stroke-miterlimit="10" stroke-linecap="square"/>
<circle cx="168.5" cy="145.5" r="2.5" fill="black"/>
<defs>
<linearGradient id="paint0_linear" x1="102.325" y1="121.569" x2="68.2303" y2="18.1826" gradientUnits="userSpaceOnUse">
<stop stop-color="#27BFE4"/>
<stop offset="0.5" stop-color="#C075E7"/>
<stop offset="1" stop-color="#F0515D"/>
</linearGradient>
</defs>
</svg>
